<svg width="34" height="36" viewBox="0 0 34 36" fill="none" xmlns="http://www.w3.org/2000/svg">
<path d="M3 5.43142C3.79759 5.43142 11.7742 2.67984 11.7742 3.03096C11.7742 3.40501 8.9912 5.77407 8.64055 6.0861C7.77314 6.85795 7.28234 7.85194 6.54238 8.58355C6.04274 9.07754 4.64909 11.0309 3.98097 11.1053C2.67342 11.2507 4.57769 9.91054 4.96193 9.14123C5.646 7.77164 7.59188 6.04013 9.13104 5.43142C10.0462 5.06948 12.5116 4.50882 13.1911 4.02509C13.5709 3.75474 15.6396 2.90623 16.134 3.34617C16.7599 3.90309 13.9388 6.17249 13.5454 6.52254C11.0823 8.71431 8.20442 10.6254 6.54238 13.2875C6.02549 14.1154 5.08352 15.4771 4.96193 16.3426C4.91675 16.6643 2.91858 19.335 4.19896 17.8702C6.19159 15.5905 7.48774 13.8634 10.3572 12.5116C11.9479 11.7622 13.1292 10.8904 14.8806 10.3293C15.8681 10.013 18.5674 9.39274 19.1859 8.70479C20.4272 7.32419 23.0899 7.00095 24.4723 5.77088C25.5263 4.83297 22.9578 8.13173 22.6193 8.58355C21.4709 10.1164 19.6998 11.5295 18.6955 13.0935C16.7519 16.12 12.6233 18.2543 9.86676 20.7071C8.21751 22.1747 6.39842 24.3109 4.71669 25.508C3.44267 26.415 3.90924 26.5482 4.47145 25.0474C5.06889 23.4525 6.23583 22.4196 7.90483 21.677C10.4477 20.5456 13.0769 18.9016 15.5346 17.652C18.1649 16.3145 22.3433 14.445 24.3088 12.1964C25.9002 10.3757 27.8149 8.59779 29.5951 6.83776C32.6611 3.80631 28.6441 9.2358 27.7694 10.0141C25.262 12.2453 23.1269 14.8888 20.6574 17.2155C18.5543 19.197 15.7884 22.0456 14.2811 24.3927C13.426 25.7243 10.3283 29.2337 8.39531 29.4361C7.43895 29.5362 6.23751 30.4008 7.90483 28.9996C9.21397 27.8994 10.6685 27.1596 12.0739 26.187C16.6937 22.9897 22.123 20.2875 27.3062 17.652C29.0454 16.7676 33.5057 14.1334 28.9956 16.2456C26.3323 17.4929 24.3293 19.8886 22.8646 22.2347C21.5175 24.3923 22.3716 27.2042 21.2569 29.4361C20.7091 30.5328 20.8609 31.6312 19.7854 32.5882C18.5434 33.6934 18.205 30.8864 18.205 30.0908C18.205 27.901 21.9845 23.6524 24.0908 22.5499C25.2419 21.9474 26.1313 22.0165 27.5241 22.0165C29.7643 22.0165 29.4861 22.4846 29.4861 24.3927C29.4861 26.7849 26.2089 28.3829 26.0527 30.7454C25.9343 32.5365 25.1517 32.9277 27.5241 32.9277C28.3848 32.9277 31.3909 33.2625 30.9575 32.4912" stroke="#D3A489" stroke-width="5" stroke-linecap="round"/>
</svg>
