<svg width="1600" height="1600" viewBox="0 0 1600 1600" fill="none" xmlns="http://www.w3.org/2000/svg">
<path d="M1046.99 900C1050.39 923.8 1053.79 944.2 1053.79 968C1053.79 1007.1 1028.29 1042.8 1028.29 1081.9C1028.29 1100.6 1038.49 1148.2 1038.49 1200.9C1038.49 1260.4 977.293 1394.7 810.693 1394.7C601.593 1394.7 535.293 1240 535.293 1131.2C535.293 1068.3 557.393 996.9 557.393 917C557.393 809.9 538.693 755.5 538.693 694.3C538.693 665.4 543.793 631.4 543.793 592.3C543.793 553.2 538.693 522.6 538.693 495.4C538.693 429.1 598.193 330.5 638.993 286.3C679.793 240.4 712.093 235.3 759.693 235.3C933.093 235.3 1018.09 318.6 1018.09 427.4C1018.09 447.8 1016.39 469.9 1016.39 502.2C1016.39 696 1046.99 765.7 1046.99 900ZM938.193 740.2L946.693 636.5V585.5C946.693 449.5 902.493 396.8 810.693 396.8C730.793 396.8 689.993 442.7 689.993 536.2C689.993 561.7 691.693 583.8 691.693 616.1C691.693 651.8 681.493 701.1 681.493 769.1C681.493 837.1 701.893 888.1 701.893 935.7C701.893 985 693.393 1029.2 693.393 1070C693.393 1163.5 747.793 1219.6 817.493 1219.6C851.493 1219.6 921.193 1200.9 921.193 1117.6C921.193 1098.9 917.793 1075.1 917.793 1054.7C917.793 1012.2 939.893 979.9 939.893 940.8C939.893 906.8 921.193 888.1 921.193 862.6C921.193 806.5 934.793 769.1 938.193 740.2Z" fill="#020202"/>
</svg>
