<svg width="1920" height="70" viewBox="0 0 1920 70" fill="none" xmlns="http://www.w3.org/2000/svg">
    <defs>
        <filter id="shadowFilter" x="-20" y="-20" width="1960" height="110" filterUnits="userSpaceOnUse" color-interpolation-filters="sRGB">
            <feOffset dy="3" />
            <feGaussianBlur stdDeviation="2" />
            <feComposite in2="SourceAlpha" operator="out" />
            <feColorMatrix type="matrix"
                           values="0 0 0 0 0
                             0 0 0 0 0
                             0 0 0 0 0
                             0 0 0 0.15 0" />
            <feBlend mode="normal" in2="BackgroundImageFix" result="shadow" />
            <feBlend mode="normal" in="SourceGraphic" in2="shadow" result="shape" />
        </filter>
    </defs>

    <g filter="url(#shadowFilter)">
        <path d="M193.932 58.4558C63.5126 58.4558 130.42 61.0722 0 61.0722V0H1920V57.5836C1877.55 57.5836 1835.77 54.6861 1794.21 49.2983C1768.66 45.9861 1742.21 47.118 1716.05 47.118C1656.68 47.118 1597.67 47.9901 1538.3 47.9901C1519.32 47.9901 1500.61 47.8782 1481.74 48.8622C1467.9 49.5837 1454.26 50.6065 1440.4 50.6065C1410.53 50.6065 1379.57 49.2249 1349.93 51.2849C1338.06 52.1097 1325.91 51.0514 1313.99 51.6725C1303.09 52.241 1292.03 53.1547 1281.06 53.2229C1231.92 53.5286 1182.74 53.2229 1133.59 53.2229H1053.03C1024.52 53.2229 996.363 64.9672 967.878 64.9672C925.337 64.9672 883.218 57.7326 840.94 58.4558C827.198 58.6908 813.493 60.5233 799.779 61.0237C784.956 61.5646 770.04 61.7054 755.342 63.2525C727.71 66.161 697.371 64.5607 669.212 64.5607H619.817C588.856 64.5607 482.441 61.0237 451.432 61.0237C406.236 61.0237 239.21 58.4558 193.932 58.4558Z"
              fill="#f4f2ef" />
    </g>
</svg>
