<svg preserveAspectRatio="none" viewBox="0 0 1523 3779" fill="none" xmlns="http://www.w3.org/2000/svg">
    <defs>
        <filter id="shadow" x="-20%" y="-20%" width="140%" height="140%">
            <feDropShadow dx="2" dy="-2" stdDeviation="2" flood-color="#000000" flood-opacity="1"/>
        </filter>
    </defs>

    <path
            d="M6.58736 630.206C6.58736 577.645 -12.3753 3.28101 14.0455 0C248.524 0 520.36 7.40942 754.512 7.40942H1172.17C1206.9 7.40942 1249.56 15.8059 1282.84 21.8166C1300.91 25.0819 1311.67 39.5267 1327.58 44.0449C1370.44 56.2088 1373.36 114.588 1384.76 149.835C1415.18 243.843 1517.35 299.433 1517.35 398.868V958.691V1526.33C1517.35 1724.27 1492.25 1934.32 1517.35 2131.03C1527.34 2209.3 1509.99 2286.19 1517.35 2364.83C1525.87 2455.79 1503.94 2546.16 1517.35 2636.51C1528.03 2708.38 1517.35 2773.77 1517.35 2846.86V3027.57V3618.45C1517.35 3627.42 1525.5 3735.63 1513.21 3739.12C1498.17 3743.39 1476.66 3739.53 1461 3739.53C1351.47 3739.53 1232.05 3740.94 1123.69 3740.94C960 3744 829 3681 548.5 3746.5C525.85 3751.79 469.988 3746.71 444.5 3766C421.46 3783.44 324.947 3776.5 297 3776.5C169.777 3776.5 159.303 3791.11 40.9778 3738.87C37.1016 3737.16 21.5461 3617.8 24.2965 3605.5C41.8214 3527.15 23.1196 3523.11 27.5753 3443.43C39.852 3223.9 16.1531 3003.38 16.1531 2783.42C16.1531 2595.25 29.7624 2371.4 6.58736 2184.91C-5.289 2089.34 6.58736 1951.35 6.58736 1854.41V1302.41V630.206Z"
            fill="none"
            stroke="#0000004F"
            filter="url(#shadow)"
    />
</svg>
