<svg width="74" height="23" viewBox="0 0 74 23" fill="none" xmlns="http://www.w3.org/2000/svg">
<g filter="url(#filter0_d_62_2573)">
<path d="M10.1195 13.1293C10.1801 13.5517 10.2407 13.9138 10.2407 14.3362C10.2407 15.0302 9.7862 15.6638 9.7862 16.3578C9.7862 16.6897 9.96799 17.5345 9.96799 18.4698C9.96799 19.5259 8.87729 21.9095 5.90815 21.9095C2.18159 21.9095 1 19.1638 1 17.2328C1 16.1164 1.39386 14.8491 1.39386 13.431C1.39386 11.5302 1.06059 10.5647 1.06059 9.47845C1.06059 8.96552 1.15149 8.36207 1.15149 7.6681C1.15149 6.97414 1.06059 6.43103 1.06059 5.94828C1.06059 4.77155 2.121 3.02155 2.84813 2.23707C3.57527 1.42241 4.15091 1.3319 4.99924 1.3319C8.08956 1.3319 9.60442 2.81034 9.60442 4.74138C9.60442 5.10345 9.57412 5.49569 9.57412 6.06896C9.57412 9.50862 10.1195 10.7457 10.1195 13.1293ZM8.18045 10.2931L8.33194 8.45259V7.54741C8.33194 5.13362 7.54421 4.19828 5.90815 4.19828C4.48418 4.19828 3.75705 5.01293 3.75705 6.67241C3.75705 7.125 3.78735 7.51724 3.78735 8.09052C3.78735 8.72414 3.60556 9.59914 3.60556 10.806C3.60556 12.0129 3.96913 12.9181 3.96913 13.7629C3.96913 14.6379 3.81764 15.4224 3.81764 16.1466C3.81764 17.806 4.78716 18.8017 6.02934 18.8017C6.63529 18.8017 7.87748 18.4698 7.87748 16.9914C7.87748 16.6595 7.81688 16.2371 7.81688 15.875C7.81688 15.1207 8.21075 14.5474 8.21075 13.8534C8.21075 13.25 7.87748 12.9181 7.87748 12.4655C7.87748 11.4698 8.11985 10.806 8.18045 10.2931Z" fill="#494949"/>
<path d="M15.2702 14.2155V13.5216C15.2702 12.1336 14.8461 11.2888 14.8461 10.0216C14.8461 9.87069 14.8764 9.75 14.8764 9.53879C15.1188 8.03017 15.1793 7.21552 15.1793 5.94828C15.1793 1.84483 15.3005 1.36207 18.3 1.36207C20.9661 1.36207 24.0564 2.29741 24.0564 5.43535C24.0564 6.00862 24.5715 7.03448 24.5715 8.45259L24.4806 9.26724C24.4806 9.90086 24.6624 10.4741 24.6624 11.0474L24.5715 11.9828C24.2988 12.9483 24.2079 13.431 24.2079 13.8233C24.2079 14.1552 24.5109 15.3621 24.5109 16.4483C24.5109 17.1724 24.0261 17.7155 23.8141 18.8621C23.5111 20.5216 21.4812 21.8793 20.2087 21.8793C18.4818 21.8793 17.5728 21.7888 17.179 21.7888C16.1186 21.7888 14.9067 20.7026 14.9067 19.6164C14.9067 19.2845 14.937 18.9828 14.937 18.7112C14.937 18.2586 14.9067 17.8664 14.9067 17.5043C14.9067 16.6293 15.2702 15.5431 15.2702 14.2155ZM22.6628 15.2112V14.6078C22.6628 12.3147 22.996 12.4655 22.996 10.3534C22.996 9.26724 22.5113 8.09052 22.4507 7.33621L22.3295 5.85776C22.2083 4.43966 21.0873 3.20259 19.5119 3.20259C18.1788 3.20259 17.3608 3.0819 17.3608 6.12931C17.3608 7.125 17.7849 7.54741 17.7849 8.18103C17.7849 9.11638 17.997 9.71983 17.997 10.2328C17.997 10.8362 17.6637 11.5 17.6637 12.1034C17.6637 13.1595 18.0576 13.6422 18.0576 14.5172C18.0576 14.9698 18.0273 15.9353 17.8152 16.6293C17.7546 16.75 17.7243 16.8707 17.7243 17.0216C17.7243 17.5948 18.2394 18.1983 18.8453 18.1983C20.8752 18.1983 21.7842 18.0474 22.2992 16.9914C22.7234 16.1164 22.6628 15.6336 22.6628 15.2112Z" fill="#494949"/>
<path d="M31.8078 20.1293C31.6866 21.6681 31.2322 21.9397 30.6565 21.9397C29.5658 21.9397 28.8993 21.5172 28.8993 20.069C28.8993 18.9526 29.3234 17.806 29.3234 16.6897C29.3234 15.7845 28.9902 15.4526 28.9902 13.6422C28.9902 12.6164 29.3234 12.1638 29.3234 11.5302C29.3234 10.8966 29.1719 10.2026 29.1719 9.50862C29.1719 7.72845 29.6264 5.76724 29.6264 4.86207C29.6264 4.22845 29.5658 3.625 29.5658 3.26293C29.5658 1.93535 29.8082 1 30.808 1C31.5957 1 31.929 1.75431 31.929 2.2069C31.9593 2.44828 31.8684 2.68965 31.8684 3.23276C31.8684 3.625 32.0199 4.1681 32.0199 4.80172C32.0199 5.97845 31.3533 6.91379 31.3533 7.84914C31.3533 8.96552 31.7169 9.2069 31.7169 11.4698C31.7169 12.556 31.3836 13.3707 31.3836 14.2457C31.3836 15.4224 31.5957 15.8448 31.5957 16.5388C31.5957 16.931 31.5351 17.3233 31.5351 17.8966C31.5351 18.4698 31.8078 19.375 31.8078 20.1293Z" fill="#494949"/>
<path d="M45.3282 13.1293C45.3888 13.5517 45.4494 13.9138 45.4494 14.3362C45.4494 15.0302 44.9949 15.6638 44.9949 16.3578C44.9949 16.6897 45.1767 17.5345 45.1767 18.4698C45.1767 19.5259 44.086 21.9095 41.1169 21.9095C37.3903 21.9095 36.2087 19.1638 36.2087 17.2328C36.2087 16.1164 36.6026 14.8491 36.6026 13.431C36.6026 11.5302 36.2693 10.5647 36.2693 9.47845C36.2693 8.96552 36.3602 8.36207 36.3602 7.6681C36.3602 6.97414 36.2693 6.43103 36.2693 5.94828C36.2693 4.77155 37.3297 3.02155 38.0569 2.23707C38.784 1.42241 39.3596 1.3319 40.208 1.3319C43.2983 1.3319 44.8131 2.81034 44.8131 4.74138C44.8131 5.10345 44.7828 5.49569 44.7828 6.06896C44.7828 9.50862 45.3282 10.7457 45.3282 13.1293ZM43.3892 10.2931L43.5407 8.45259V7.54741C43.5407 5.13362 42.7529 4.19828 41.1169 4.19828C39.6929 4.19828 38.9658 5.01293 38.9658 6.67241C38.9658 7.125 38.9961 7.51724 38.9961 8.09052C38.9961 8.72414 38.8143 9.59914 38.8143 10.806C38.8143 12.0129 39.1778 12.9181 39.1778 13.7629C39.1778 14.6379 39.0264 15.4224 39.0264 16.1466C39.0264 17.806 39.9959 18.8017 41.2381 18.8017C41.844 18.8017 43.0862 18.4698 43.0862 16.9914C43.0862 16.6595 43.0256 16.2371 43.0256 15.875C43.0256 15.1207 43.4195 14.5474 43.4195 13.8534C43.4195 13.25 43.0862 12.9181 43.0862 12.4655C43.0862 11.4698 43.3286 10.806 43.3892 10.2931Z" fill="#494949"/>
<path d="M59.5681 5.40517C59.5681 6.73276 58.6592 7.09483 57.9321 7.09483C56.9929 7.09483 56.6596 6.40086 56.6596 5.82759C56.6596 5.55604 56.7808 5.34483 56.7808 5.10345C56.7808 4.46983 56.4172 3.56465 54.4479 3.56465C53.7208 3.56465 51.6909 4.22845 51.6909 5.16379C51.6909 5.46552 51.9635 5.94828 51.9635 6.40086C51.9635 6.67241 51.9332 6.94397 51.9332 7.125C51.9332 8 52.2968 8.39224 53.3269 9.26724C54.7509 10.2026 57.5988 10.3534 58.8107 12.4655C59.144 13.069 59.5681 13.8534 59.5681 14.819C59.5681 15.9957 59.8408 16.4784 59.8408 17.1724C59.8408 20.944 56.3869 21.7284 54.7812 21.7284C53.2966 21.7284 51.9332 21.5474 51.5394 21.0948C50.2366 19.6466 49.3883 19.375 49.3883 18.1681C49.3883 17.1422 49.5095 15.4526 51.4485 15.4526C52.2059 15.4526 52.5998 15.9655 52.5998 16.5388C52.5998 16.75 52.3877 17.1422 52.3877 17.2931C52.3877 17.8664 53.5693 18.5603 54.5388 18.5603C56.6293 18.5603 57.2958 17.6853 57.2958 17.0517C57.2958 16.569 57.0838 16.2672 57.0838 15.7543C57.0838 15.4526 57.1444 15.0905 57.1444 14.819C57.1444 12.9483 55.6295 12.0129 54.7206 11.7112C54.4479 11.681 52.2059 10.7759 51.8423 10.5043C51.4485 10.2328 49.9033 8.90517 49.9033 6.94396C49.9033 2.2069 52.2362 1.21121 54.7812 1.21121C58.4168 1.21121 59.4167 3.0819 59.5681 5.40517Z" fill="#494949"/>
<path d="M64.9106 8.48276L64.85 7.4569C64.85 6.73276 64.9409 6.06896 65.2742 5.40517C65.3954 5.16379 65.5166 4.71121 65.5772 4.13793C65.7893 2.29741 66.577 1.30172 68.0918 1.30172C69.5158 1.30172 70.1824 3.02155 70.1824 4.31897C70.1824 4.53017 70.0915 5.34483 70.0915 5.7069C70.0915 6.46121 70.3641 6.70259 70.6368 8.09052C70.6671 8.21121 70.6671 8.30172 70.6671 8.42241C70.6671 8.81465 70.5762 9.08621 70.5762 9.68966C70.5762 10.0819 70.6671 10.8664 71.1216 12.375C71.3336 13.0388 71.4245 13.7629 71.4245 14.5172C71.5154 16.2371 71.8487 16.9009 72.182 18.2586C72.3335 19.1336 73 19.4957 73 20.3707C73 21.1853 72.5758 21.9698 71.6366 21.9698C70.6974 21.9698 70.4853 21.4267 70.4853 20.8534C70.4853 20.4612 70.5156 19.9181 70.5156 19.5259C70.5156 18.8922 70.3944 17.8664 69.0917 17.8664C68.6069 17.8664 68.0312 17.9871 67.6374 17.9871C67.3041 17.9871 67.0011 17.9267 66.7285 17.9267C65.759 17.9267 65.153 18.7414 65.153 20.4009C65.153 21.3966 64.7591 22 63.6987 22C63.0019 22 62.2445 21.8491 62.2445 20.5517C62.2445 18.7716 63.5473 18.8017 63.5473 15.8147C63.5473 15.2112 63.4867 15.0302 63.4867 14.4569C63.4867 12.7672 64.032 13.0388 64.2744 11.5C64.2441 11.1681 64.2138 10.806 64.2138 10.3534C64.3047 9.62931 64.8197 9.2069 64.9106 8.48276ZM68.9099 15.2112L69.4855 15.1509C69.9703 15.0302 70.0915 14.5172 70.0915 13.9741C70.0915 13.4612 69.9097 13.0388 69.9097 12.6164C69.9097 12.3448 69.94 12.1034 69.94 11.8922C69.94 10.5345 69.2734 9.84052 68.819 8.42241L68.5766 7.6681C68.4857 7.18535 68.0918 6.91379 67.7586 6.91379C67.3344 6.91379 67.3647 8.03017 67.1526 8.51293C66.8497 9.14655 66.5164 9.96121 66.5164 10.625V11.1681C66.5164 12.2241 65.6984 13.4914 65.6984 14.306C65.6984 14.4267 65.6984 15.5129 66.9103 15.5129C67.5162 15.5129 67.6677 15.2112 68.9099 15.2112Z" fill="#494949"/>
</g>
<defs>
<filter id="filter0_d_62_2573" x="0" y="0" width="74" height="23" filterUnits="userSpaceOnUse" color-interpolation-filters="sRGB">
<feFlood flood-opacity="0" result="BackgroundImageFix"/>
<feColorMatrix in="SourceAlpha" type="matrix" values="0 0 0 0 0 0 0 0 0 0 0 0 0 0 0 0 0 0 127 0" result="hardAlpha"/>
<feOffset/>
<feGaussianBlur stdDeviation="0.5"/>
<feComposite in2="hardAlpha" operator="out"/>
<feColorMatrix type="matrix" values="0 0 0 0 0 0 0 0 0 0 0 0 0 0 0 0 0 0 1 0"/>
<feBlend mode="normal" in2="BackgroundImageFix" result="effect1_dropShadow_62_2573"/>
<feBlend mode="normal" in="SourceGraphic" in2="effect1_dropShadow_62_2573" result="shape"/>
</filter>
</defs>
</svg>
