<svg preserveAspectRatio="none" viewBox="0 0 412 3981" fill="none" xmlns="http://www.w3.org/2000/svg">
    <defs>
        <filter id="shadow" x="-20%" y="-20%" width="140%" height="140%">
            <feDropShadow dx="2" dy="-2" stdDeviation="2" flood-color="#000000" flood-opacity="1"/>
        </filter>

        <linearGradient id="fadeGradient" x1="0" y1="0" x2="0" y2="1">
            <stop offset="0%" stop-color="#E4E4E1" stop-opacity="0"/>
            <stop offset="100%" stop-color="#E4E4E1" stop-opacity="1"/>
        </linearGradient>

        <mask id="path-mask">
            <path
                    d="M409.936 197.649C409.936 181.165 414.742 1.02901 408.045 0C348.607 0 279.7 2.32379 220.345 2.32379H98.3082C89.5048 2.32379 78.6911 4.95713 70.2558 6.84227C65.6734 7.86634 62.9473 12.3966 58.9123 13.8136C48.0494 17.6286 47.3088 35.9377 44.418 46.9922C36.708 76.4755 10.8079 93.9102 10.8079 125.096V300.671C10.8079 360.056 0.807922 419.466 0.807922 478.699C0.807922 540.777 7.17014 606.654 0.807922 668.346C-1.72366 692.894 2.67468 717.008 0.807922 741.674C-1.35086 770.199 14.2094 798.543 10.8079 826.88C8.10236 849.42 10.8079 869.927 10.8079 892.85V949.524V3930.58C10.8079 3933.4 8.74326 3967.33 11.8582 3968.43C15.67 3969.77 21.1233 3968.56 25.0922 3968.56C52.8585 3968.56 83.1294 3969 110.597 3969C152.091 3969.96 201.463 3950.2 272.567 3970.74C278.308 3972.4 292.469 3970.81 298.93 3976.86C304.77 3982.33 329.235 3980.15 336.319 3980.15C368.569 3980.15 371.224 3984.74 401.218 3968.35C402.201 3967.81 406.144 3930.38 405.447 3926.52C401.004 3901.95 405.745 3900.68 404.615 3875.69C401.503 3806.84 407.511 941.939 407.511 872.955C407.511 813.939 404.061 743.733 409.936 685.245C412.946 655.272 409.936 611.996 409.936 581.591V408.469V197.649Z"
                    fill="white"
            />
        </mask>
    </defs>

    <rect
            x="0" y="3200"
            width="412" height="800"
            fill="url(#fadeGradient)"
            mask="url(#path-mask)"
    />

    <path
            d="M409.936 197.649C409.936 181.165 414.742 1.02901 408.045 0C348.607 0 279.7 2.32379 220.345 2.32379H98.3082C89.5048 2.32379 78.6911 4.95713 70.2558 6.84227C65.6734 7.86634 62.9473 12.3966 58.9123 13.8136C48.0494 17.6286 47.3088 35.9377 44.418 46.9922C36.708 76.4755 10.8079 93.9102 10.8079 125.096V300.671C10.8079 360.056 0.807922 419.466 0.807922 478.699C0.807922 540.777 7.17014 606.654 0.807922 668.346C-1.72366 692.894 2.67468 717.008 0.807922 741.674C-1.35086 770.199 14.2094 798.543 10.8079 826.88C8.10236 849.42 10.8079 869.927 10.8079 892.85V949.524V3930.58C10.8079 3933.4 8.74326 3967.33 11.8582 3968.43C15.67 3969.77 21.1233 3968.56 25.0922 3968.56C52.8585 3968.56 83.1294 3969 110.597 3969C152.091 3969.96 201.463 3950.2 272.567 3970.74C278.308 3972.4 292.469 3970.81 298.93 3976.86C304.77 3982.33 329.235 3980.15 336.319 3980.15C368.569 3980.15 371.224 3984.74 401.218 3968.35C402.201 3967.81 406.144 3930.38 405.447 3926.52C401.004 3901.95 405.745 3900.68 404.615 3875.69C401.503 3806.84 407.511 941.939 407.511 872.955C407.511 813.939 404.061 743.733 409.936 685.245C412.946 655.272 409.936 611.996 409.936 581.591V408.469V197.649Z"
            fill="none"
            stroke="#0000004F"
            filter="url(#shadow)"
    />
</svg>
