<svg fill="none" height="31" viewBox="0 0 36 31" width="36" xmlns="http://www.w3.org/2000/svg" xmlns:xlink="http://www.w3.org/1999/xlink"><filter id="a" color-interpolation-filters="sRGB" filterUnits="userSpaceOnUse" height="31.0005" width="36" x="0" y="-.000488"><feFlood flood-opacity="0" result="BackgroundImageFix"/><feColorMatrix in="SourceAlpha" result="hardAlpha" type="matrix" values="0 0 0 0 0 0 0 0 0 0 0 0 0 0 0 0 0 0 127 0"/><feOffset/><feGaussianBlur stdDeviation=".75"/><feComposite in2="hardAlpha" operator="out"/><feColorMatrix type="matrix" values="0 0 0 0 0 0 0 0 0 0 0 0 0 0 0 0 0 0 1 0"/><feBlend in2="BackgroundImageFix" mode="normal" result="effect1_dropShadow_62_2574"/><feBlend in="SourceGraphic" in2="effect1_dropShadow_62_2574" mode="normal" result="shape"/></filter><g filter="url(#a)" stroke="#474747" stroke-linecap="round" stroke-width="3"><path d="m3 3.3445c3.36498 0 6.34944.34531 9.636.57998 2.2869.16329 4.7797.01094 7.0881.01094.9209 0 2.2968-.23642 3.1035-.49243 1.0446-.33152 2.5002.03276 3.6207-.25169 1.5882-.4032 4.8025-.04377 6.5517-.04377"/><path d="m5 15c5.2485 0 10.5807.0329 15.7215.2 3.9522.1285 7.4021.8 11.2785.8"/><path d="m32 27.1937c-4.6659 0-9.282-.1937-14.0127-.1937-2.2134 0-4.0135.901-6.1519.9683-2.26248.0713-4.56889 0-6.8354 0"/></g></svg>