<svg width="20" height="20" viewBox="0 0 20 20" fill="none" xmlns="http://www.w3.org/2000/svg">
<g filter="url(#filter0_d_369_76)">
<path d="M5.26316 14.2017L5.73684 13.0086C5.73684 12.2824 6.87368 11.7896 7.01579 10.8559C6.92105 10.3631 6.68421 9.61095 5.68947 9.04035C3.84211 7.95101 5.26316 6.39481 3.46316 4.70893C2.75263 4.00865 1 3.30836 1 2.58213C1 1.98559 1.37895 1.5706 2.94211 1.5706C4.31579 1.5706 4.6 2.27089 5.12105 2.97118C6.87368 5.27954 7.58421 5.12392 8.2 6.44668C8.53158 7.14697 8.86316 7.97694 9.57368 7.97694C10.2842 7.97694 12.0368 5.46109 13.3158 4.39769C14.8789 3.10086 13.7895 1 16.7737 1C18.1947 1 19 1.4928 19 2.40058C19 2.81556 18.8105 3.23055 18.6684 3.4121C16.9158 5.35735 15.5895 6.36888 14.7842 7.40634C14.4526 7.82133 14.4053 8.72911 14.1211 9.19596C13.7895 9.7147 12.9368 10.1297 12.9368 10.8559C12.9368 11.6599 14.7368 12.7752 15.7316 14.928C16.1105 16.3285 18.3368 17.1326 18.3368 17.8329C18.3368 18.4035 17.3895 19 16.1105 19C14.9737 19 14.2632 18.585 13.8842 17.9885C12.7474 16.2507 11.8 15.1614 10.9947 13.9164C10.7105 13.4755 10.2368 13.2421 9.71579 13.2421C8.86316 13.2421 7.72632 14.6686 7.39474 15.1614C6.63684 16.2767 6.2579 18.9222 4.07895 18.9222C3.13158 18.9222 2.46842 18.585 2.46842 17.9107C2.46842 17.0548 4.03158 15.8876 5.26316 14.2017Z" fill="#474747"/>
</g>
<defs>
<filter id="filter0_d_369_76" x="0" y="0" width="20" height="20" filterUnits="userSpaceOnUse" color-interpolation-filters="sRGB">
<feFlood flood-opacity="0" result="BackgroundImageFix"/>
<feColorMatrix in="SourceAlpha" type="matrix" values="0 0 0 0 0 0 0 0 0 0 0 0 0 0 0 0 0 0 127 0" result="hardAlpha"/>
<feOffset/>
<feGaussianBlur stdDeviation="0.5"/>
<feComposite in2="hardAlpha" operator="out"/>
<feColorMatrix type="matrix" values="0 0 0 0 0 0 0 0 0 0 0 0 0 0 0 0 0 0 1 0"/>
<feBlend mode="normal" in2="BackgroundImageFix" result="effect1_dropShadow_369_76"/>
<feBlend mode="normal" in="SourceGraphic" in2="effect1_dropShadow_369_76" result="shape"/>
</filter>
</defs>
</svg>
