<svg width="51" height="49" viewBox="0 0 51 49" fill="none" xmlns="http://www.w3.org/2000/svg">
<path d="M44.5763 45.9837C34.5177 45.9837 24.6796 46.6211 14.593 46.6211C13.8551 46.6211 9.23338 43.5926 7.69683 44.5C4.72766 46.2534 2 48.0993 2 42.5016L2 28.1354C2 25.9682 3.19933 24.2215 3.19933 22.0798C3.19933 20.2762 3.42042 19.1688 4.09883 17.5823C5.73139 13.7645 5.598 9.31381 5.598 5.18769C5.598 2.81303 5.25315 2.00051 7.69683 2.00051L12.794 2.00051C17.2787 2.00051 22.1368 2.45058 26.7196 2.63795C33.3547 2.90922 40.1916 3.27538 46.975 3.27538C49.9401 3.27538 48.774 10.1472 48.774 12.5182C48.774 14.0324 49.1844 16.2755 48.3075 17.4406C47.9913 17.8608 47.0061 21.1979 46.975 21.7611C46.8461 24.0887 45.7821 25.0122 44.3098 26.5772C43.1242 27.8375 43.377 29.3144 43.377 31.0039C43.377 33.4756 47.9212 45.9837 44.5763 45.9837Z" stroke="#474747" stroke-width="4" stroke-linecap="round"/>
</svg>
