<svg width="59" height="57" viewBox="0 0 59 57" fill="none" xmlns="http://www.w3.org/2000/svg">
<path d="M11.3571 50.0116C11.3571 38.6689 10.6956 27.5748 10.6956 16.2006C10.6956 15.3685 5.35311 8.12813 4.41146 6.39543C2.59186 3.04722 -0.405239 2 5.4037 2H29.8789C32.1279 2 33.9404 3.35244 36.163 3.35244C38.0347 3.35244 39.1838 3.60175 40.8302 4.36677C44.7921 6.20773 49.4107 6.05732 53.6925 6.05732C56.1568 6.05732 57 5.66845 57 8.42408V14.1719C57 19.2291 56.5329 24.7075 56.3385 29.8753C56.057 37.3574 55.677 45.0671 55.677 52.7164C55.677 56.0601 48.5458 54.7451 46.0854 54.7451C44.5141 54.7451 42.1863 55.208 40.9772 54.2192C40.5412 53.8626 37.0782 52.7516 36.4938 52.7164C34.0783 52.5712 33.12 51.3713 31.4958 49.711C30.1881 48.3741 28.6554 48.6591 26.9022 48.6591C24.3372 48.6591 11.3571 53.7835 11.3571 50.0116Z" stroke="#474747" stroke-width="4" stroke-linecap="round"/>
</svg>
